<?xml version="1.0" standalone="no"?>
<!DOCTYPE svg PUBLIC "-//W3C//DTD SVG 20010904//EN"
 "http://www.w3.org/TR/2001/REC-SVG-20010904/DTD/svg10.dtd">
<svg version="1.0" xmlns="http://www.w3.org/2000/svg"
 width="256.000000pt" height="256.000000pt" viewBox="0 0 256.000000 256.000000"
 preserveAspectRatio="xMidYMid meet">
<metadata>
Created by potrace 1.14, written by Peter Selinger 2001-2017
</metadata>
<g transform="translate(0.000000,256.000000) scale(0.100000,-0.100000)"
fill="#000000" stroke="none">
<path d="M1190 2445 c-155 -16 -310 -73 -413 -154 -86 -66 -81 -60 -96 -124
-10 -43 -20 -57 -54 -82 -28 -21 -51 -50 -70 -89 -35 -73 -87 -324 -87 -421 0
-106 -8 -141 -36 -154 -13 -5 -34 -32 -48 -59 -22 -44 -24 -55 -16 -111 9 -65
11 -68 72 -140 l37 -43 -36 -56 -35 -56 25 -21 c13 -11 41 -32 61 -48 l35 -27
-19 -33 c-11 -17 -20 -35 -20 -38 0 -6 19 -14 112 -48 l27 -10 -14 -48 c-8
-26 -11 -51 -7 -55 4 -3 25 -8 47 -10 l40 -3 3 -47 3 -48 39 0 38 0 7 -60 c4
-33 9 -60 11 -60 2 0 22 11 44 25 22 14 43 25 48 25 5 0 5 -30 0 -67 -4 -37
-6 -68 -5 -70 2 -1 19 2 38 7 65 19 69 16 69 -45 l0 -55 39 0 c64 0 89 -14 97
-55 3 -19 9 -35 12 -35 3 0 21 15 40 33 l33 32 30 -32 c35 -40 44 -41 65 -8
22 33 36 32 59 -7 l20 -33 3 33 c3 33 18 43 28 17 10 -25 24 -17 24 15 0 33
12 37 50 15 37 -21 40 -19 33 30 -6 48 -3 51 28 34 20 -10 21 -4 3 63 -4 13 5
19 38 25 42 8 43 10 46 50 3 37 6 42 29 45 25 3 36 14 47 52 5 15 13 17 45 12
l39 -6 6 44 c7 43 9 44 74 74 37 16 77 33 90 36 26 8 26 12 7 46 -20 34 -20
32 29 69 l43 33 -38 58 c-22 31 -39 62 -39 67 0 5 23 20 50 33 54 25 58 31 34
50 -36 30 -36 48 -2 79 18 17 45 35 60 42 15 6 25 16 22 24 -3 7 -1 16 5 19
16 10 50 94 52 129 4 49 -19 104 -55 134 l-33 28 -12 140 c-16 173 -61 348
-118 453 -50 92 -135 188 -227 257 -84 64 -230 119 -341 130 -38 3 -77 8 -85
9 -8 2 -67 -2 -130 -9z m309 -60 c125 -33 138 -38 209 -92 41 -32 103 -89 138
-127 52 -57 72 -89 112 -185 84 -198 93 -227 90 -302 -1 -38 -6 -69 -10 -69
-5 0 -6 -11 -2 -25 5 -20 2 -25 -11 -25 -17 0 -17 -1 0 -20 18 -19 17 -20 -6
-20 -19 -1 -14 -6 24 -26 51 -27 58 -45 10 -26 -44 18 -287 31 -388 22 -49 -5
-153 -21 -230 -36 -125 -24 -154 -26 -275 -20 -74 3 -155 11 -180 18 -26 6
-117 11 -215 11 -153 0 -207 -6 -270 -28 -18 -6 -17 -4 3 14 13 11 43 26 65
33 39 11 40 12 14 16 -31 4 -33 9 -10 34 15 17 15 18 -5 18 -23 0 -29 14 -12
25 16 10 12 25 -7 25 -15 0 -15 1 1 18 15 18 15 19 -8 30 -27 12 -27 15 13
183 35 151 55 192 111 230 46 31 50 38 66 102 l17 69 81 52 c82 53 227 109
324 126 110 18 211 11 351 -25z m597 -951 c11 -8 26 -26 32 -40 12 -26 17 -94
6 -94 -18 0 -45 24 -40 35 12 31 -16 76 -63 101 l-46 24 45 -6 c24 -4 54 -13
66 -20z m-1571 -36 c-41 -35 -75 -95 -75 -132 0 -14 -4 -28 -10 -31 -17 -11
-11 -25 15 -35 14 -5 25 -16 25 -25 0 -23 -16 -18 -44 16 -57 67 -15 182 82
225 44 20 45 16 7 -18z m520 7 l40 -12 -48 -21 c-35 -16 -55 -33 -75 -66 -34
-57 -46 -59 -27 -5 20 54 21 52 -22 45 l-38 -6 23 19 23 20 -23 5 c-13 3 -34
7 -48 8 -18 3 -8 8 35 19 61 16 88 15 160 -6z m645 -4 l45 -7 -53 -13 -53 -13
28 -30 28 -30 -25 7 c-14 4 -31 10 -39 13 -10 4 -13 1 -8 -11 19 -47 17 -49
-12 -15 -17 20 -48 42 -69 49 l-37 12 50 24 c53 24 72 26 145 14z m-372 -15
c33 -1 58 -8 69 -19 16 -16 15 -16 -15 -5 -24 9 -39 10 -62 1 -17 -7 -32 -7
-36 -2 -3 5 -34 9 -68 9 -54 0 -66 -3 -80 -22 -16 -22 -16 -21 -1 9 16 35 45
44 105 36 19 -3 59 -6 88 -7z m-65 -84 c9 -39 -21 -76 -64 -79 l-34 -3 35 18
c32 16 35 21 34 59 -1 47 20 50 29 5z m-553 -27 c0 -11 11 -15 42 -15 40 0 41
0 23 -20 -18 -19 -17 -20 3 -20 30 0 27 -14 -5 -30 -16 -7 -23 -14 -18 -15 6
-2 23 -6 39 -10 l29 -6 -56 -57 c-32 -32 -57 -60 -57 -64 0 -3 17 -2 38 3 51
12 56 11 42 -6 -10 -13 -9 -15 9 -15 19 0 21 -6 21 -60 l0 -60 39 0 c21 0 43
-6 48 -12 13 -18 54 -130 49 -135 -2 -2 -20 26 -41 62 l-37 67 -44 -7 -44 -6
0 49 c0 58 -7 62 -107 62 l-62 0 29 66 c17 36 30 68 30 70 0 2 -18 7 -40 10
-22 4 -40 10 -40 14 0 3 20 21 45 39 41 29 57 51 38 51 -5 0 -15 5 -23 10 -13
9 -11 13 10 30 30 24 40 25 40 5z m687 -37 c25 5 26 3 15 -10 -10 -13 -20 -14
-50 -6 -39 11 -52 23 -52 50 0 12 7 10 30 -12 22 -21 36 -26 57 -22z m113 -26
c31 -70 36 -106 6 -52 -13 25 -36 56 -50 69 -14 14 -26 33 -26 43 0 17 1 18
25 2 14 -9 34 -37 45 -62z m621 40 c-14 -27 -39 -45 -51 -37 -19 12 -10 33 18
43 39 15 44 14 33 -6z m-1021 -6 c0 -8 11 -23 25 -34 32 -25 31 -27 -5 -42
-16 -7 -31 -20 -34 -29 -14 -47 -17 -92 -8 -124 9 -31 7 -40 -9 -61 -27 -34
-24 -57 21 -199 42 -130 46 -169 30 -277 -16 -113 9 -131 198 -143 101 -6 102
-6 118 19 14 20 16 42 11 127 -5 79 -3 109 8 132 l15 30 -7 -35 c-8 -48 -8
-42 1 -163 l8 -108 -28 -30 c-26 -27 -29 -28 -50 -14 -15 10 -49 15 -96 15
-52 1 -89 7 -128 24 -48 19 -56 27 -67 62 -12 42 -17 27 -7 -24 3 -17 16 -35
29 -42 13 -7 26 -25 29 -41 5 -26 8 -28 32 -19 15 6 28 9 29 8 1 -2 12 -21 24
-43 l23 -40 -30 28 c-26 25 -33 27 -52 17 -18 -10 -24 -8 -36 7 -7 10 -14 21
-14 26 0 4 -13 7 -30 7 -28 0 -30 3 -30 35 0 33 -1 34 -29 29 l-30 -6 13 43
c8 24 30 71 50 104 46 76 47 120 5 241 -58 170 -76 345 -45 448 19 64 66 114
66 72z m761 -29 c-8 -11 0 -23 40 -55 l50 -41 -38 -10 c-21 -6 -45 -11 -54
-11 -27 0 -28 -10 -8 -57 11 -25 18 -48 16 -50 -3 -2 -24 1 -48 6 -65 15 -68
14 -75 -29 -6 -37 -9 -40 -38 -40 -30 0 -35 -5 -61 -60 -16 -33 -30 -58 -33
-56 -5 6 28 107 41 124 5 6 20 12 32 12 19 0 24 7 30 45 l6 46 51 -7 50 -7 -7
34 c-12 55 -11 63 10 64 11 1 34 3 50 4 l30 2 -42 38 c-48 43 -50 48 -25 54
31 8 35 7 23 -6z m-323 -209 c-3 -57 -11 -114 -17 -128 -10 -22 -11 -18 -6 24
4 38 1 54 -12 69 -16 18 -16 20 -2 14 13 -4 18 3 23 34 3 22 3 51 0 64 -4 17
-2 25 6 25 10 0 11 -25 8 -102z m-284 -15 c4 -4 31 -6 60 -5 51 1 53 0 49 -23
-4 -18 -11 -23 -29 -21 -13 2 -27 6 -30 9 -4 3 -14 2 -23 -3 -26 -13 -85 3
-89 24 -3 14 0 17 12 13 8 -3 18 -2 21 3 7 12 19 13 29 3z m-96 -20 c5 -9 6
-30 2 -47 -5 -17 -11 -49 -15 -71 l-7 -40 -13 37 c-16 44 -22 109 -11 126 10
17 33 15 44 -5z m286 -5 c11 -41 6 -88 -11 -121 l-17 -32 -6 45 c-3 25 -12 55
-19 68 -11 20 -10 27 5 43 23 25 40 24 48 -3z m-190 -329 c8 -12 19 -18 25
-14 6 3 27 1 46 -5 33 -11 35 -14 35 -55 0 -32 -7 -51 -25 -73 -14 -17 -25
-35 -25 -41 0 -15 -61 -13 -81 2 -27 20 -40 55 -38 100 1 23 -2 54 -6 69 -5
21 -3 27 12 31 34 9 42 7 57 -14z m146 -78 c0 -40 -38 -101 -63 -101 -6 0 1
13 16 28 19 20 28 40 30 70 3 53 17 55 17 3z m-194 -145 c-12 -50 -46 -27 -59
40 -8 45 2 49 36 15 23 -23 28 -35 23 -55z m214 59 c0 -14 -7 -42 -15 -62 -15
-35 -16 -35 -35 -18 -27 25 -25 44 8 76 35 34 42 35 42 4z m-76 -75 c17 -16
-5 -29 -42 -25 -20 1 -47 3 -59 4 -13 1 -23 7 -23 15 0 8 10 16 23 18 29 5 90
-2 101 -12z"/>
<path d="M1260 2140 c0 -13 -7 -20 -20 -20 -15 0 -20 -7 -20 -25 0 -18 5 -25
20 -25 17 0 20 -7 20 -45 l0 -45 -40 0 c-33 0 -40 3 -40 20 0 15 -7 20 -25 20
-18 0 -25 -5 -25 -20 0 -16 -7 -20 -31 -20 -27 0 -30 -3 -27 -27 2 -22 8 -28
28 -28 18 0 26 -6 28 -23 5 -30 52 -32 52 -2 0 17 7 20 40 20 l40 0 0 -40 c0
-33 -3 -40 -20 -40 -16 0 -20 -7 -20 -30 0 -23 4 -30 20 -30 16 0 20 -7 20
-31 0 -27 3 -30 28 -27 21 2 28 9 30 31 2 19 9 27 23 27 14 0 19 7 19 30 0 23
-4 30 -20 30 -17 0 -20 7 -20 43 l0 42 45 -3 c36 -3 45 -8 45 -23 0 -29 48
-26 52 4 2 14 10 22 23 22 14 0 21 8 23 28 3 23 0 27 -22 27 -19 0 -26 5 -26
20 0 15 -7 20 -25 20 -18 0 -25 -5 -25 -20 0 -17 -7 -20 -45 -20 -45 0 -45 0
-45 35 0 19 -1 38 -2 43 -2 4 7 8 20 10 16 2 22 10 22 27 0 17 -6 25 -22 27
-15 2 -22 9 -22 21 1 12 -6 17 -27 17 -22 0 -29 -5 -29 -20z"/>
<path d="M759 2145 c-4 -5 -10 -24 -13 -40 -5 -23 -20 -39 -61 -63 -30 -18
-55 -39 -55 -47 0 -7 -3 -22 -6 -32 -4 -13 1 -11 18 8 13 15 44 36 70 47 33
14 49 28 53 45 8 30 2 96 -6 82z"/>
<path d="M1737 1852 c-32 -35 9 -76 53 -52 15 8 20 19 18 38 -4 34 -46 42 -71
14z"/>
<path d="M1805 1789 c-17 -10 -38 -16 -49 -13 -12 4 -16 2 -12 -5 17 -27 96
-2 96 30 0 11 1 12 -35 -12z"/>
<path d="M1196 1603 c-13 -4 -15 -7 -7 -12 7 -5 -28 -11 -77 -14 -119 -9 -146
-20 -62 -27 57 -5 60 -6 30 -12 -19 -3 -84 -11 -145 -17 -60 -6 -135 -17 -165
-24 -85 -20 625 -14 820 7 80 9 177 16 215 17 l70 1 -45 10 c-25 6 -119 11
-209 11 -90 0 -156 4 -145 8 10 4 28 11 39 15 29 11 -63 22 -145 17 -49 -2
-59 -1 -42 6 12 6 22 13 22 16 0 6 -127 5 -154 -2z"/>
</g>
</svg>
